<?xml version="1.0" encoding="iso-8859-1"?>
<!-- Generator: Adobe Illustrator 19.0.0, SVG Export Plug-In . SVG Version: 6.00 Build 0)  -->
<svg version="1.1" id="Capa_1" xmlns="http://www.w3.org/2000/svg" xmlns:xlink="http://www.w3.org/1999/xlink" x="0px" y="0px"
	 viewBox="0 0 512 512" style="enable-background:new 0 0 512 512;" xml:space="preserve">
<rect x="121.219" y="331.515" style="fill:#99A9BA;" width="269.573" height="66.695"/>
<path style="fill:#B6C5D8;" d="M400.101,347.21H111.899c-17.793,0-32.217-14.424-32.217-32.217V32.217
	C79.682,14.424,94.107,0,111.899,0h288.202c17.793,0,32.217,14.424,32.217,32.217v282.777
	C432.318,332.785,417.893,347.21,400.101,347.21z"/>
<path style="fill:#1F3B63;" d="M361.521,235.425H150.479c-18.325,0-33.182-14.856-33.182-33.182V69.331
	c0-18.325,14.856-33.182,33.182-33.182h211.042c18.325,0,33.182,14.856,33.182,33.182v132.912
	C394.703,220.569,379.848,235.425,361.521,235.425z"/>
<path style="fill:#122944;" d="M146.554,202.243V69.331c0-18.325,14.856-33.182,33.182-33.182h-29.257
	c-18.326,0-33.182,14.856-33.182,33.182v132.912c0,18.326,14.856,33.182,33.182,33.182h29.257
	C161.41,235.425,146.554,220.57,146.554,202.243z"/>
<path style="fill:#1F3B63;" d="M184.543,311.989h-57.695c-7.006,0-12.685-5.679-12.685-12.685v-1.034
	c0-7.006,5.679-12.685,12.685-12.685h57.695c7.006,0,12.685,5.679,12.685,12.685v1.034
	C197.228,306.31,191.549,311.989,184.543,311.989z"/>
<path style="fill:#ED3B72;" d="M386.867,302.586h-29.779c-4.328,0-7.837-3.509-7.837-7.837s3.509-7.837,7.837-7.837h29.779
	c4.328,0,7.837,3.509,7.837,7.837S391.195,302.586,386.867,302.586z"/>
<path style="fill:#FFFFFF;" d="M178.295,86.485h-29.779c-4.328,0-7.837-3.509-7.837-7.837c0-4.328,3.509-7.837,7.837-7.837h29.779
	c4.328,0,7.837,3.509,7.837,7.837C186.132,82.976,182.623,86.485,178.295,86.485z"/>
<path style="fill:#F4E662;" d="M325.74,302.591c-6.927,0-10.416-8.773-5.398-13.516c2.54-2.401,6.424-2.824,9.428-1.045
	c2.644,1.566,4.108,4.641,3.746,7.678C333.055,299.577,329.636,302.591,325.74,302.591z"/>
<polygon style="fill:#99A9BA;" points="35.799,480.651 35.799,512 476.201,512 476.201,480.651 260.842,450.632 "/>
<polygon style="fill:#B6C5D8;" points="432.444,382.512 79.556,382.512 35.799,480.651 476.201,480.651 "/>
<g>
</g>
<g>
</g>
<g>
</g>
<g>
</g>
<g>
</g>
<g>
</g>
<g>
</g>
<g>
</g>
<g>
</g>
<g>
</g>
<g>
</g>
<g>
</g>
<g>
</g>
<g>
</g>
<g>
</g>
</svg>
