<?xml version="1.0" encoding="iso-8859-1"?>
<!-- Generator: Adobe Illustrator 19.0.0, SVG Export Plug-In . SVG Version: 6.00 Build 0)  -->
<svg version="1.1" id="Layer_1" xmlns="http://www.w3.org/2000/svg" xmlns:xlink="http://www.w3.org/1999/xlink" x="0px" y="0px"
	 viewBox="0 0 512 512" style="enable-background:new 0 0 512 512;" xml:space="preserve">
<path style="fill:#935B2A;" d="M321.607,16.083C301.994,5.81,279.675,0,256.002,0c-78.205,0-141.604,63.399-141.604,141.603v39.016
	c5.567-9.744,15.677-16.559,27.445-17.562v0.039c0-2.951,0.312-5.858,0.918-8.71c0.19-0.899,0.42-1.79,0.667-2.677
	c0.07-0.251,0.149-0.5,0.223-0.751c0.195-0.649,0.404-1.296,0.63-1.939c0.094-0.27,0.188-0.539,0.286-0.809
	c0.271-0.731,0.562-1.458,0.872-2.179c0.059-0.14,0.112-0.282,0.175-0.422c0.365-0.829,0.761-1.651,1.176-2.467
	c0.151-0.294,0.31-0.585,0.468-0.878c0.286-0.536,0.582-1.069,0.887-1.599c0.197-0.338,0.394-0.674,0.599-1.009
	c0.308-0.505,0.63-1.005,0.957-1.505c0.206-0.314,0.404-0.633,0.619-0.948c0.491-0.718,1.005-1.428,1.534-2.134
	c0.3-0.396,0.614-0.789,0.924-1.183c0.284-0.36,0.571-0.719,0.865-1.076c0.354-0.427,0.715-0.853,1.082-1.275
	c0.257-0.299,0.527-0.592,0.791-0.887c1.447-1.601,2.992-3.163,4.638-4.684c0.179-0.164,0.354-0.331,0.536-0.495
	c0.553-0.5,1.115-0.997,1.69-1.487c0.162-0.139,0.328-0.276,0.491-0.416c0.599-0.505,1.204-1.007,1.827-1.504
	c0.055-0.045,0.11-0.087,0.163-0.131c0.269-0.214,0.555-0.42,0.828-0.631c6.207-4.45,13.122-4.213,18.209-3.03
	c16.778,8.838,42.469,14.495,71.28,14.495c0.28,0,0.555-0.009,0.835-0.009c0.28,0,0.555,0.009,0.835,0.009
	c28.812,0,54.502-5.658,71.28-14.495c5.088-1.183,12.004-1.42,18.209,3.03c0.273,0.211,0.56,0.417,0.828,0.631
	c0.055,0.044,0.11,0.086,0.163,0.131c0.623,0.496,1.229,0.999,1.827,1.504c0.166,0.14,0.33,0.278,0.493,0.416
	c0.573,0.49,1.135,0.987,1.687,1.487c0.181,0.163,0.356,0.33,0.536,0.495c1.648,1.52,3.192,3.083,4.638,4.684
	c0.266,0.295,0.534,0.589,0.791,0.887c0.369,0.422,0.727,0.847,1.082,1.275c0.295,0.357,0.582,0.716,0.865,1.076
	c0.31,0.394,0.626,0.786,0.924,1.183c0.532,0.706,1.043,1.417,1.534,2.134c0.214,0.313,0.413,0.632,0.619,0.948
	c0.328,0.499,0.651,1,0.957,1.505c0.206,0.336,0.402,0.673,0.599,1.009c0.306,0.53,0.601,1.063,0.887,1.599
	c0.158,0.293,0.317,0.584,0.468,0.878c0.415,0.817,0.811,1.638,1.176,2.467c0.064,0.14,0.116,0.282,0.175,0.422
	c0.31,0.722,0.601,1.448,0.872,2.179c0.101,0.269,0.192,0.538,0.286,0.809c0.225,0.642,0.435,1.289,0.63,1.939
	c0.074,0.251,0.153,0.5,0.223,0.751c0.25,0.887,0.477,1.779,0.667,2.677c0.605,2.852,0.918,5.761,0.918,8.71v-0.039
	c11.749,1.003,21.845,7.797,27.417,17.515v-38.969c0-44.642-20.658-84.459-52.938-110.415"/>
<path style="fill:#A06335;" d="M274.356,132.039c21.594-1.778,40.486-6.77,53.775-13.77c5.088-1.183,12.004-1.42,18.209,3.03
	c0.273,0.211,0.559,0.417,0.828,0.631c0.055,0.044,0.11,0.086,0.163,0.131c0.623,0.496,1.229,0.999,1.827,1.504
	c0.166,0.14,0.33,0.278,0.493,0.416c0.573,0.49,1.135,0.987,1.687,1.487c0.181,0.163,0.356,0.33,0.536,0.495
	c1.648,1.52,3.192,3.083,4.638,4.684c0.266,0.295,0.534,0.589,0.791,0.887c0.369,0.422,0.727,0.847,1.082,1.275
	c0.295,0.357,0.582,0.716,0.865,1.076c0.31,0.394,0.625,0.786,0.924,1.183c0.532,0.706,1.043,1.417,1.534,2.134
	c0.214,0.313,0.413,0.632,0.619,0.948c0.328,0.499,0.651,1,0.957,1.505c0.206,0.336,0.402,0.673,0.599,1.009
	c0.306,0.53,0.601,1.063,0.887,1.599c0.158,0.293,0.317,0.584,0.468,0.878c0.415,0.817,0.811,1.638,1.176,2.467
	c0.064,0.14,0.116,0.282,0.175,0.422c0.31,0.722,0.601,1.448,0.872,2.179c0.101,0.269,0.192,0.538,0.286,0.809
	c0.225,0.642,0.435,1.289,0.63,1.939c0.074,0.251,0.153,0.5,0.223,0.751c0.25,0.887,0.477,1.779,0.667,2.677
	c0.605,2.852,0.918,5.761,0.918,8.71v-0.039c11.749,1.003,21.845,7.797,27.417,17.515v-38.969c0-38.876-15.67-74.089-41.038-99.68
	C323.008,65.531,294.857,96.308,274.356,132.039z"/>
<path style="fill:#844719;" d="M136.537,141.603c0-74.448,57.458-135.476,130.447-141.167C263.358,0.158,259.698,0,256.002,0
	c-78.205,0-141.604,63.399-141.604,141.603v39.016c4.709-8.242,12.674-14.373,22.139-16.68
	C136.537,163.939,136.537,141.603,136.537,141.603z"/>
<path style="fill:#DDAC64;" d="M256.015,367.071c-17.491,0-34.057-3.937-48.875-10.965v26.602v5.624v26.602h0.011
	c0.204,13.405,21.99,24.242,48.85,24.242c26.858,0,48.648-10.836,48.85-24.242h0.009v-26.602v-5.612v-26.6
	C290.053,363.139,273.495,367.071,256.015,367.071z"/>
<path style="fill:#CC9348;" d="M229.291,420.155h-0.011v-26.6v-5.624v-24.019c-7.713-1.852-15.124-4.477-22.139-7.805v26.602v5.624
	v26.602h0.011c0.179,11.853,17.235,21.69,39.747,23.812C236.231,434.301,229.404,427.629,229.291,420.155z"/>
<path style="fill:#EFCA83;" d="M369.269,152.147c-0.19-0.899-0.417-1.79-0.667-2.677c-0.07-0.251-0.149-0.5-0.223-0.751
	c-0.195-0.649-0.404-1.296-0.63-1.939c-0.094-0.27-0.186-0.539-0.286-0.809c-0.271-0.731-0.562-1.458-0.872-2.179
	c-0.059-0.14-0.112-0.282-0.175-0.422c-0.365-0.829-0.761-1.65-1.176-2.467c-0.151-0.294-0.31-0.585-0.468-0.878
	c-0.286-0.536-0.582-1.069-0.887-1.599c-0.197-0.338-0.394-0.674-0.599-1.009c-0.305-0.505-0.63-1.005-0.957-1.505
	c-0.206-0.314-0.404-0.633-0.619-0.948c-0.491-0.718-1.003-1.428-1.534-2.134c-0.3-0.396-0.614-0.789-0.924-1.183
	c-0.284-0.36-0.571-0.72-0.865-1.076c-0.354-0.427-0.713-0.853-1.082-1.275c-0.257-0.299-0.525-0.592-0.791-0.887
	c-1.445-1.601-2.99-3.163-4.638-4.684c-0.179-0.164-0.354-0.331-0.536-0.495c-0.553-0.5-1.115-0.997-1.687-1.487
	c-0.164-0.139-0.328-0.276-0.493-0.416c-0.599-0.505-1.204-1.007-1.827-1.504c-0.055-0.045-0.11-0.087-0.163-0.131
	c-0.269-0.214-0.555-0.42-0.828-0.631c-6.205-4.45-13.122-4.213-18.209-3.03c-16.778,8.838-42.469,14.495-71.28,14.495
	c-0.28,0-0.555-0.009-0.835-0.009c-0.28,0-0.555,0.009-0.835,0.009c-28.812,0-54.502-5.658-71.28-14.495
	c-5.088-1.183-12.003-1.42-18.209,3.03c-0.273,0.211-0.559,0.417-0.828,0.631c-0.055,0.044-0.11,0.086-0.163,0.131
	c-0.623,0.496-1.229,0.999-1.827,1.504c-0.163,0.14-0.33,0.278-0.491,0.416c-0.575,0.49-1.137,0.987-1.69,1.487
	c-0.181,0.163-0.356,0.33-0.536,0.495c-1.646,1.52-3.191,3.083-4.638,4.684c-0.264,0.295-0.534,0.589-0.791,0.887
	c-0.367,0.422-0.727,0.847-1.082,1.275c-0.295,0.357-0.582,0.716-0.865,1.076c-0.31,0.394-0.626,0.786-0.924,1.183
	c-0.529,0.706-1.043,1.417-1.534,2.134c-0.214,0.313-0.413,0.632-0.619,0.948c-0.328,0.499-0.649,1-0.957,1.505
	c-0.206,0.336-0.402,0.673-0.599,1.009c-0.305,0.53-0.601,1.063-0.887,1.599c-0.158,0.293-0.317,0.584-0.468,0.878
	c-0.415,0.817-0.811,1.638-1.176,2.467c-0.064,0.14-0.116,0.282-0.175,0.422c-0.31,0.722-0.601,1.448-0.872,2.179
	c-0.098,0.269-0.192,0.538-0.286,0.809c-0.225,0.642-0.435,1.289-0.63,1.939c-0.074,0.251-0.153,0.5-0.223,0.751
	c-0.247,0.887-0.477,1.779-0.667,2.677c-0.605,2.852-0.918,5.761-0.918,8.71v1.311v13.034v14.425v23.223v17.812v35.538
	c0,4.926,0.312,9.78,0.918,14.542c5.132,40.386,31.362,74.185,67.297,90.004c3.123,1.375,6.322,2.614,9.585,3.711
	c1.633,0.548,3.281,1.06,4.944,1.534c9.986,2.852,20.529,4.38,31.428,4.38l0,0c10.901,0,21.444-1.527,31.428-4.38
	c1.663-0.474,3.311-0.986,4.944-1.534c3.265-1.097,6.462-2.336,9.585-3.711c35.934-15.819,62.165-49.618,67.297-90.004
	c0.605-4.762,0.918-9.617,0.918-14.542v-35.538v-17.812v-23.223v-14.425v-13.034v-1.311
	C370.187,157.907,369.873,154.999,369.269,152.147z"/>
<path style="fill:#F9CF8C;" d="M368.602,149.469c-0.07-0.251-0.149-0.5-0.223-0.751c-0.195-0.649-0.404-1.296-0.63-1.939
	c-0.094-0.27-0.186-0.539-0.286-0.809c-0.271-0.731-0.562-1.458-0.872-2.179c-0.059-0.14-0.112-0.282-0.175-0.422
	c-0.365-0.829-0.761-1.651-1.176-2.467c-0.151-0.294-0.31-0.585-0.468-0.878c-0.286-0.536-0.582-1.069-0.887-1.599
	c-0.197-0.338-0.394-0.674-0.599-1.009c-0.305-0.505-0.63-1.005-0.957-1.505c-0.206-0.314-0.404-0.633-0.619-0.948
	c-0.491-0.718-1.003-1.428-1.534-2.134c-0.3-0.396-0.614-0.789-0.924-1.183c-0.284-0.36-0.571-0.72-0.865-1.076
	c-0.354-0.427-0.713-0.853-1.082-1.275c-0.257-0.299-0.525-0.592-0.791-0.887c-1.445-1.601-2.99-3.163-4.638-4.684
	c-0.179-0.164-0.354-0.331-0.536-0.495c-0.553-0.5-1.115-0.997-1.687-1.487c-0.164-0.139-0.328-0.276-0.493-0.416
	c-0.599-0.505-1.204-1.007-1.827-1.504c-0.055-0.045-0.11-0.087-0.163-0.131c-0.269-0.214-0.555-0.42-0.828-0.631
	c-6.205-4.45-13.122-4.213-18.209-3.03c-13.289,7-32.181,11.992-53.775,13.77c-23.542,41.034-37.006,88.59-37.006,139.291
	c0,39.511,8.191,77.104,22.943,111.197c9.385-0.346,18.479-1.821,27.151-4.298c1.663-0.474,3.311-0.986,4.944-1.534
	c3.265-1.097,6.462-2.336,9.585-3.711c35.934-15.819,62.165-49.618,67.297-90.004c0.605-4.762,0.918-9.617,0.918-14.542v-35.538
	v-17.812v-23.223V175.2v-13.034v-1.311c0-2.951-0.312-5.858-0.918-8.71C369.078,151.249,368.851,150.357,368.602,149.469z"/>
<ellipse style="fill:#FF6342;" cx="256.797" cy="306.389" rx="42.195" ry="25.456"/>
<g>
	<circle style="fill:#898790;" cx="199.684" cy="220.988" r="16.386"/>
	<circle style="fill:#898790;" cx="311.101" cy="220.988" r="16.386"/>
</g>
<path style="fill:#CE9B57;" d="M141.844,160.073c-17.95,1.532-32.042,16.577-32.042,34.922s14.092,33.39,32.042,34.922V160.073z"/>
<path style="fill:#DDAC64;" d="M370.187,160.073c17.95,1.532,32.042,16.577,32.042,34.922s-14.092,33.39-32.042,34.922V160.073z"/>
<path style="fill:#46D383;" d="M166.199,511.504h286.547c7.416,0,13.428-6.012,13.428-13.428v-12.053
	c0-48.809-39.571-88.382-88.382-88.382h-45.05h-1.793h-14.09H304.86v3.99h-0.009c-0.204,13.405-21.992,24.242-48.85,24.242
	c-26.86,0-48.648-10.836-48.85-24.242h-0.011v-3.99h-11.999h-14.09h-1.79h-45.053c-48.811,0-88.382,39.573-88.382,88.382v12.053
	c0,7.416,6.012,13.428,13.428,13.428h79.526"/>
<path style="fill:#DDAC64;" d="M256.015,262.879c-4.636,0-8.392-3.756-8.392-8.392V233.6c0-4.635,3.756-8.392,8.392-8.392
	c4.636,0,8.392,3.758,8.392,8.392v20.887C264.407,259.122,260.651,262.879,256.015,262.879z"/>
<g>
	<path style="fill:#874C21;" d="M223.354,191.928c-1.628,0.001-3.273-0.472-4.72-1.458c-18.613-12.688-38.362-2.03-38.56-1.921
		c-4.056,2.245-9.162,0.774-11.405-3.282c-2.245-4.055-0.773-9.162,3.282-11.406c1.175-0.65,29.083-15.702,56.138,2.74
		c3.829,2.612,4.818,7.832,2.208,11.662C228.671,190.645,226.036,191.928,223.354,191.928z"/>
	<path style="fill:#874C21;" d="M288.651,191.928c-2.683,0.001-5.319-1.282-6.942-3.666c-2.611-3.83-1.621-9.05,2.208-11.662
		c27.055-18.442,54.961-3.391,56.137-2.74c4.055,2.244,5.526,7.349,3.281,11.406c-2.236,4.043-7.319,5.518-11.371,3.3
		c-0.892-0.479-20.246-10.605-38.592,1.903C291.923,191.456,290.278,191.928,288.651,191.928z"/>
	<path style="fill:#874C21;" d="M320.406,284.553c-0.651-0.583-1.598-0.703-2.37-0.295l-0.736,0.386
		c-0.054,0.028-0.113,0.057-0.173,0.087l-1.016,0.468l-0.398,0.168c-0.135,0.057-0.273,0.111-0.398,0.16l-0.179,0.065
		c-0.09,0.035-0.17,0.066-0.253,0.095l-0.959,0.321l-0.214,0.064c-0.073,0.022-0.153,0.047-0.226,0.067l-0.243,0.067
		c-0.088,0.025-0.171,0.046-0.257,0.068l-0.243,0.06c-0.083,0.021-0.168,0.04-0.244,0.059l-0.255,0.058
		c-0.085,0.019-0.172,0.035-0.262,0.055l-0.773,0.143c-0.11,0.019-0.225,0.035-0.35,0.054c-0.074,0.012-0.15,0.023-0.23,0.034
		c-0.159,0.022-0.318,0.041-0.487,0.06l-0.81,0.07c-0.095,0.008-0.197,0.016-0.274,0.02l-0.312,0.013
		c-0.094,0.006-0.186,0.008-0.283,0.01c-0.093,0.003-0.186,0.004-0.279,0.006l-0.304,0.001c-0.093,0-0.185,0-0.288-0.002
		c-0.101-0.001-0.204-0.006-0.312-0.009c-0.093-0.001-0.187-0.007-0.265-0.009l-0.339-0.021c-0.091-0.006-0.187-0.011-0.285-0.019
		c-0.11-0.009-0.219-0.019-0.332-0.028l-0.284-0.028c-0.096-0.009-0.199-0.022-0.3-0.034l-0.318-0.04
		c-0.206-0.029-0.411-0.06-0.59-0.091l-0.229-0.04c-0.143-0.025-0.289-0.053-0.444-0.083c-0.063-0.013-0.122-0.026-0.189-0.04
		l-0.115-0.023c-0.114-0.023-0.227-0.047-0.346-0.076l-0.293-0.071c-0.122-0.029-0.245-0.06-0.363-0.093l-0.304-0.082
		c-0.12-0.035-0.244-0.072-0.372-0.107c-0.097-0.029-0.2-0.062-0.299-0.093c-0.124-0.037-0.25-0.077-0.38-0.121
		c-0.098-0.032-0.199-0.067-0.304-0.103c-0.126-0.043-0.254-0.088-0.383-0.135l-0.041-0.017c-0.088-0.031-0.177-0.064-0.269-0.098
		c-0.123-0.047-0.25-0.098-0.372-0.145l-0.319-0.128c-0.14-0.06-0.284-0.121-0.439-0.189l-0.261-0.113
		c-0.179-0.081-0.358-0.166-0.551-0.255l-0.16-0.076c-0.216-0.104-0.433-0.214-0.65-0.326l-6.387-4.197
		c-0.322-0.219-0.62-0.415-0.934-0.615l-0.471-0.297c-0.096-0.059-0.191-0.117-0.284-0.173c-0.105-0.065-0.211-0.125-0.318-0.188
		l-0.471-0.276c-0.112-0.065-0.226-0.125-0.335-0.186l-0.452-0.25c-0.112-0.06-0.227-0.121-0.344-0.18l-0.431-0.223
		c-0.261-0.132-0.518-0.256-0.797-0.387l-0.294-0.135c-0.154-0.07-0.308-0.141-0.479-0.216l-0.405-0.173
		c-0.116-0.049-0.23-0.098-0.351-0.148l-0.443-0.176c-0.11-0.043-0.217-0.085-0.323-0.125c-0.093-0.035-0.186-0.068-0.271-0.1
		l-0.175-0.064c-0.106-0.039-0.211-0.077-0.335-0.12l-0.337-0.114c-0.133-0.046-0.272-0.092-0.404-0.133
		c-0.101-0.032-0.2-0.063-0.301-0.095l-0.051-0.016c-0.138-0.041-0.273-0.082-0.403-0.12c-0.098-0.028-0.194-0.056-0.298-0.084
		l-0.066-0.019c-0.129-0.036-0.257-0.07-0.387-0.105c-0.12-0.031-0.232-0.06-0.356-0.092c-0.129-0.031-0.261-0.064-0.404-0.096
		l-0.339-0.077c-0.13-0.029-0.262-0.059-0.388-0.083c-0.117-0.025-0.23-0.048-0.352-0.074c-0.131-0.023-0.263-0.048-0.382-0.071
		c-0.121-0.021-0.235-0.041-0.347-0.06c-0.129-0.022-0.26-0.043-0.405-0.064l-0.324-0.05c-0.128-0.018-0.257-0.034-0.383-0.05
		l-0.048-0.007c-0.101-0.013-0.195-0.025-0.28-0.035c-0.135-0.017-0.267-0.028-0.396-0.041c-0.111-0.011-0.215-0.022-0.316-0.03
		c-0.096-0.009-0.195-0.018-0.292-0.026l-0.421-0.031c-0.114-0.009-0.23-0.015-0.348-0.019l-0.341-0.019
		c-0.12-0.004-0.234-0.007-0.339-0.011l-0.35-0.01c-0.114-0.001-0.22-0.002-0.328-0.002h-0.342c-0.21,0.001-0.401,0.006-0.577,0.01
		l-0.088,0.002c-0.248,0.007-0.471,0.017-0.723,0.03l-0.114,0.008c-0.17,0.011-0.342,0.022-0.537,0.038l-0.199,0.016
		c-0.147,0.016-0.289,0.026-0.441,0.043l-0.283,0.031c-0.113,0.011-0.225,0.023-0.359,0.04l-0.294,0.039
		c-0.104,0.013-0.211,0.028-0.335,0.046l-0.332,0.051c-0.094,0.016-0.184,0.029-0.304,0.053l-0.836,0.154l-0.593,0.124
		c-0.115,0.027-0.227,0.051-0.349,0.082l-0.23,0.055c-0.12,0.029-0.229,0.058-0.342,0.085l-0.247,0.066
		c-0.104,0.028-0.211,0.059-0.341,0.095l-0.762,0.225c-0.111,0.032-0.215,0.068-0.344,0.111l-0.722,0.245
		c-0.105,0.037-0.206,0.075-0.312,0.113l-0.209,0.077c-0.102,0.04-0.21,0.082-0.305,0.12l-0.194,0.076
		c-0.114,0.045-0.223,0.092-0.318,0.13l-0.167,0.069c-0.124,0.054-0.25,0.107-0.365,0.159l-0.074,0.032
		c-0.35,0.157-0.656,0.3-0.968,0.454l-0.023,0.011c-0.133,0.066-0.262,0.132-0.406,0.206l-0.399,0.211
		c-0.011,0.007-0.022,0.013-0.035,0.019l-0.516,0.29c-0.083,0.049-0.168,0.097-0.267,0.157l-0.111,0.067
		c-0.09,0.054-0.169,0.103-0.247,0.151c-0.028,0.018-0.055,0.036-0.081,0.053l-1.294,0.886c-0.028,0.019-0.057,0.038-0.085,0.062
		c-0.068,0.053-0.131,0.1-0.214,0.165l-0.35,0.284c-0.055,0.047-0.115,0.097-0.2,0.169l-0.269,0.244
		c-0.009,0.008-0.018,0.016-0.026,0.022c-0.058,0.055-0.114,0.107-0.163,0.157l-0.043,0.04c-0.076,0.074-0.131,0.132-0.18,0.185
		l-0.045,0.046c-0.048,0.05-0.098,0.104-0.14,0.152l-0.059,0.067c-0.011,0.011-0.021,0.023-0.03,0.035
		c-0.013-0.015-0.026-0.027-0.038-0.043l-0.031-0.035c-0.05-0.057-0.102-0.112-0.175-0.191l-0.047-0.049
		c-0.035-0.037-0.088-0.09-0.143-0.145c-0.01-0.009-0.019-0.018-0.027-0.026l-0.047-0.046c-0.046-0.045-0.098-0.095-0.177-0.168
		l-0.286-0.255c-0.066-0.058-0.121-0.106-0.179-0.156c-0.011-0.01-0.022-0.019-0.034-0.028l-0.331-0.266
		c-0.074-0.058-0.135-0.105-0.2-0.154c-0.028-0.021-0.057-0.041-0.086-0.063l-1.295-0.886c-0.025-0.018-0.05-0.034-0.076-0.049
		c-0.084-0.054-0.165-0.104-0.261-0.159l-0.505-0.298c-0.092-0.054-0.186-0.104-0.28-0.156l-0.133-0.074
		c-0.101-0.054-0.204-0.107-0.299-0.158l-0.119-0.064c-0.129-0.067-0.261-0.133-0.368-0.186l-0.06-0.03
		c-0.302-0.149-0.608-0.293-0.934-0.439l-0.094-0.04c-0.117-0.054-0.244-0.107-0.392-0.17l-0.117-0.047
		c-0.123-0.053-0.233-0.097-0.364-0.15l-0.163-0.065c-0.109-0.043-0.211-0.083-0.339-0.132l-0.181-0.068
		c-0.105-0.037-0.208-0.075-0.341-0.122l-0.711-0.241c-0.116-0.037-0.223-0.073-0.357-0.114l-0.755-0.223
		c-0.109-0.03-0.214-0.06-0.335-0.092l-0.233-0.064c-0.114-0.027-0.222-0.056-0.335-0.084l-0.251-0.06
		c-0.112-0.026-0.223-0.051-0.338-0.077l-0.584-0.123c-0.011-0.002-0.023-0.004-0.035-0.007l-0.844-0.157
		c-0.098-0.017-0.201-0.032-0.305-0.049l-0.316-0.049c-0.117-0.018-0.237-0.034-0.367-0.051l-0.255-0.032
		c-0.117-0.016-0.233-0.028-0.344-0.039l-0.291-0.034c-0.147-0.015-0.286-0.026-0.424-0.038l-0.232-0.02
		c-0.172-0.015-0.347-0.025-0.505-0.035l-0.163-0.01c-0.214-0.013-0.439-0.022-0.676-0.029l-0.094-0.002
		c-0.181-0.004-0.372-0.009-0.587-0.01h-0.335c-0.109,0-0.216,0.001-0.344,0.003l-0.332,0.009c-0.114,0.004-0.227,0.007-0.355,0.012
		l-0.328,0.018c-0.119,0.007-0.237,0.01-0.372,0.02l-0.396,0.03c-0.097,0.008-0.194,0.015-0.298,0.026
		c-0.102,0.009-0.208,0.019-0.3,0.029c-0.14,0.015-0.272,0.026-0.404,0.043l-0.32,0.04c-0.139,0.019-0.271,0.034-0.418,0.055
		l-0.307,0.048c-0.133,0.019-0.267,0.04-0.399,0.063c-0.113,0.019-0.226,0.039-0.326,0.058c-0.138,0.023-0.271,0.049-0.41,0.076
		c-0.113,0.021-0.224,0.044-0.338,0.067c-0.133,0.028-0.262,0.057-0.408,0.088l-0.34,0.077c-0.129,0.03-0.261,0.063-0.396,0.096
		c-0.113,0.028-0.229,0.058-0.339,0.087c-0.138,0.036-0.269,0.072-0.406,0.11l-0.055,0.017c-0.098,0.026-0.197,0.055-0.291,0.082
		c-0.14,0.041-0.275,0.081-0.411,0.122l-0.053,0.016c-0.098,0.031-0.199,0.062-0.3,0.094c-0.134,0.043-0.269,0.087-0.407,0.134
		l-0.344,0.116c-0.121,0.04-0.239,0.084-0.356,0.126l-0.417,0.153c-0.103,0.04-0.208,0.081-0.312,0.122l-0.46,0.182
		c-0.116,0.047-0.235,0.098-0.351,0.149l-0.411,0.176c-0.158,0.069-0.31,0.139-0.452,0.206l-0.324,0.147
		c-0.261,0.123-0.517,0.248-0.794,0.389l-0.422,0.218c-0.114,0.058-0.227,0.116-0.361,0.189l-0.421,0.233
		c-0.114,0.064-0.227,0.124-0.363,0.203l-0.45,0.264c-0.105,0.062-0.21,0.122-0.317,0.187c-0.094,0.058-0.19,0.116-0.285,0.177
		l-0.469,0.293c-0.312,0.199-0.605,0.393-0.901,0.59l-6.468,4.245c-0.201,0.104-0.398,0.204-0.575,0.289l-0.207,0.096
		c-0.175,0.083-0.351,0.168-0.532,0.247l-0.282,0.123c-0.135,0.059-0.278,0.12-0.402,0.172l-0.31,0.125
		c-0.147,0.057-0.275,0.109-0.397,0.156l-0.313,0.116c-0.126,0.046-0.254,0.092-0.377,0.133c-0.104,0.036-0.207,0.07-0.314,0.106
		c-0.121,0.04-0.246,0.081-0.363,0.117c-0.107,0.034-0.21,0.066-0.32,0.098c-0.116,0.035-0.237,0.069-0.358,0.104l-0.048,0.011
		c-0.085,0.025-0.17,0.049-0.257,0.07c-0.12,0.032-0.241,0.064-0.365,0.093l-0.295,0.072c-0.11,0.025-0.222,0.049-0.341,0.074
		l-0.305,0.066c-0.151,0.029-0.298,0.057-0.454,0.084l-0.184,0.034c-0.21,0.035-0.415,0.066-0.594,0.092l-0.347,0.044
		c-0.102,0.011-0.203,0.025-0.309,0.036l-0.284,0.026c-0.105,0.01-0.214,0.02-0.33,0.028c-0.094,0.009-0.188,0.013-0.284,0.019
		c-0.105,0.007-0.211,0.015-0.312,0.02c-0.101,0.003-0.195,0.009-0.293,0.01c-0.103,0.003-0.205,0.008-0.317,0.009
		c-0.091,0.002-0.184,0.002-0.269,0.002l-0.593-0.007c-0.1-0.002-0.199-0.004-0.29-0.01l-0.272-0.011
		c-0.106-0.007-0.207-0.015-0.316-0.022l-0.811-0.072c-0.158-0.018-0.317-0.037-0.471-0.058l-0.256-0.037
		c-0.112-0.018-0.223-0.034-0.311-0.048l-0.324-0.057c-0.073-0.013-0.145-0.025-0.233-0.043l-0.479-0.098l-1.248-0.313
		c-0.081-0.022-0.163-0.047-0.257-0.075c-0.062-0.017-0.126-0.037-0.195-0.057l-0.948-0.318l-0.44-0.162
		c-0.126-0.049-0.265-0.104-0.383-0.152l-1.436-0.645l-0.906-0.472c-0.774-0.407-1.721-0.289-2.37,0.295
		c-0.651,0.584-0.869,1.513-0.548,2.325c7.437,18.798,19.998,28.328,37.34,28.328h0.137c13.705-0.041,25.899-6.404,27.477-7.26
		c1.554,0.844,13.736,7.219,27.477,7.26h0.135h0.006c17.336,0,29.898-9.531,37.334-28.328
		C321.275,286.066,321.057,285.137,320.406,284.553z"/>
</g>
<path style="fill:#935227;" d="M320.954,286.878c0.321-0.812,0.104-1.741-0.546-2.325c-0.651-0.583-1.598-0.703-2.37-0.295
	l-0.736,0.386c-0.054,0.028-0.113,0.057-0.173,0.087l-1.016,0.468l-0.398,0.168c-0.135,0.057-0.273,0.111-0.398,0.16l-0.179,0.065
	c-0.09,0.035-0.17,0.066-0.253,0.095l-0.959,0.321l-0.214,0.064c-0.073,0.022-0.153,0.047-0.226,0.067l-0.243,0.067
	c-0.088,0.025-0.171,0.046-0.257,0.068l-0.243,0.06c-0.083,0.021-0.168,0.04-0.244,0.059l-0.255,0.058
	c-0.085,0.019-0.172,0.035-0.262,0.055l-0.773,0.143c-0.11,0.019-0.225,0.035-0.35,0.054c-0.074,0.012-0.15,0.023-0.23,0.034
	c-0.159,0.022-0.318,0.041-0.487,0.06l-0.81,0.07c-0.095,0.008-0.197,0.016-0.274,0.02l-0.312,0.013
	c-0.094,0.006-0.186,0.008-0.283,0.01c-0.093,0.003-0.186,0.004-0.279,0.006l-0.304,0.001c-0.093,0-0.185,0-0.288-0.002
	c-0.101-0.001-0.204-0.006-0.312-0.009c-0.093-0.001-0.187-0.007-0.265-0.009l-0.339-0.021c-0.091-0.006-0.187-0.011-0.285-0.019
	c-0.11-0.009-0.219-0.019-0.332-0.028l-0.284-0.028c-0.096-0.009-0.199-0.022-0.3-0.034l-0.318-0.04
	c-0.206-0.029-0.411-0.06-0.59-0.091l-0.229-0.04c-0.143-0.025-0.289-0.053-0.444-0.083c-0.063-0.013-0.122-0.026-0.189-0.04
	l-0.115-0.023c-0.114-0.023-0.227-0.047-0.346-0.076l-0.293-0.07c-0.122-0.029-0.245-0.06-0.363-0.093l-0.304-0.082
	c-0.12-0.035-0.244-0.072-0.372-0.107c-0.097-0.029-0.2-0.062-0.299-0.093c-0.124-0.037-0.25-0.077-0.38-0.121
	c-0.099-0.032-0.199-0.067-0.304-0.103c-0.126-0.043-0.254-0.088-0.383-0.135l-0.041-0.017c-0.088-0.031-0.177-0.064-0.269-0.098
	c-0.123-0.047-0.25-0.098-0.372-0.145l-0.319-0.128c-0.14-0.06-0.284-0.121-0.439-0.189l-0.261-0.113
	c-0.179-0.081-0.358-0.166-0.551-0.255l-0.16-0.076c-0.216-0.104-0.433-0.214-0.65-0.326l-6.387-4.197
	c-0.322-0.219-0.62-0.415-0.934-0.615l-0.471-0.297c-0.096-0.059-0.191-0.117-0.284-0.173c-0.105-0.065-0.211-0.125-0.318-0.188
	l-0.471-0.276c-0.112-0.065-0.226-0.125-0.335-0.186l-0.452-0.25c-0.112-0.06-0.227-0.121-0.344-0.18l-0.431-0.223
	c-0.261-0.132-0.518-0.256-0.797-0.387l-0.294-0.135c-0.154-0.07-0.308-0.141-0.479-0.216l-0.405-0.173
	c-0.116-0.049-0.23-0.098-0.351-0.148l-0.443-0.176c-0.11-0.043-0.217-0.085-0.323-0.125c-0.093-0.035-0.186-0.068-0.271-0.1
	l-0.175-0.064c-0.106-0.039-0.211-0.077-0.335-0.12l-0.337-0.114c-0.133-0.046-0.272-0.092-0.404-0.133
	c-0.101-0.032-0.2-0.063-0.301-0.095l-0.051-0.016c-0.138-0.041-0.273-0.082-0.403-0.12c-0.098-0.028-0.194-0.056-0.298-0.084
	l-0.066-0.019c-0.129-0.036-0.257-0.07-0.387-0.105c-0.12-0.031-0.232-0.06-0.356-0.092c-0.129-0.031-0.261-0.064-0.404-0.096
	l-0.339-0.077c-0.13-0.029-0.262-0.059-0.388-0.083c-0.117-0.025-0.23-0.048-0.352-0.074c-0.131-0.023-0.263-0.048-0.382-0.07
	c-0.121-0.021-0.235-0.041-0.347-0.06c-0.129-0.022-0.26-0.043-0.405-0.064l-0.324-0.05c-0.128-0.018-0.257-0.034-0.383-0.05
	l-0.048-0.007c-0.101-0.013-0.195-0.025-0.28-0.035c-0.135-0.017-0.267-0.028-0.396-0.041c-0.111-0.011-0.215-0.022-0.316-0.03
	c-0.096-0.009-0.195-0.018-0.292-0.026l-0.421-0.031c-0.114-0.009-0.23-0.015-0.348-0.019l-0.341-0.019
	c-0.12-0.004-0.234-0.007-0.339-0.011l-0.35-0.01c-0.114-0.001-0.22-0.002-0.328-0.002h-0.342c-0.21,0.001-0.401,0.006-0.577,0.01
	l-0.088,0.002c-0.248,0.007-0.471,0.017-0.723,0.03l-0.114,0.008c-0.17,0.011-0.342,0.022-0.537,0.038l-0.199,0.016
	c-0.147,0.016-0.289,0.026-0.441,0.043l-0.283,0.031c-0.113,0.011-0.225,0.023-0.359,0.04l-0.294,0.039
	c-0.104,0.013-0.211,0.028-0.335,0.046l-0.332,0.051c-0.094,0.016-0.184,0.029-0.304,0.053l-0.836,0.154l-0.593,0.124
	c-0.115,0.027-0.227,0.051-0.349,0.082l-0.23,0.055c-0.12,0.029-0.229,0.058-0.342,0.085l-0.247,0.066
	c-0.104,0.028-0.211,0.059-0.341,0.095l-0.762,0.225c-0.111,0.032-0.215,0.068-0.344,0.111l-0.722,0.245
	c-0.105,0.037-0.206,0.075-0.312,0.113l-0.209,0.077c-0.102,0.04-0.21,0.082-0.305,0.12l-0.194,0.076
	c-0.114,0.045-0.223,0.092-0.318,0.13l-0.167,0.069c-0.124,0.054-0.25,0.107-0.365,0.159l-0.074,0.032
	c-0.35,0.157-0.656,0.3-0.968,0.454l-0.023,0.011c-0.133,0.066-0.262,0.132-0.406,0.206l-0.399,0.211
	c-0.011,0.007-0.022,0.013-0.035,0.019l-0.516,0.29c-0.083,0.049-0.168,0.097-0.267,0.157l-0.111,0.067
	c-0.09,0.054-0.169,0.103-0.247,0.151c-0.028,0.018-0.055,0.036-0.081,0.053l-1.294,0.886c-0.028,0.019-0.057,0.038-0.085,0.062
	c-0.068,0.053-0.131,0.1-0.214,0.164l-0.35,0.284c-0.055,0.047-0.115,0.097-0.2,0.169l-0.269,0.244
	c-0.009,0.008-0.018,0.016-0.026,0.022c-0.058,0.055-0.114,0.107-0.163,0.157l-0.043,0.04c-0.076,0.074-0.131,0.132-0.18,0.185
	l-0.045,0.046c-0.048,0.05-0.098,0.104-0.14,0.152l-0.059,0.067c-0.011,0.011-0.021,0.023-0.03,0.035
	c-0.013-0.015-0.026-0.027-0.038-0.043l-0.031-0.035c-0.05-0.057-0.102-0.112-0.175-0.191l-0.047-0.049
	c-0.035-0.037-0.088-0.09-0.143-0.145c-0.01-0.009-0.019-0.018-0.027-0.026l-0.047-0.046c-0.046-0.045-0.098-0.095-0.177-0.168
	l-0.286-0.255c-0.066-0.058-0.121-0.106-0.179-0.156c-0.011-0.01-0.022-0.019-0.034-0.028l-0.331-0.266
	c-0.074-0.058-0.135-0.105-0.2-0.154c-0.028-0.021-0.057-0.041-0.086-0.063l-1.295-0.886c-0.025-0.018-0.05-0.034-0.076-0.049
	c-0.084-0.054-0.165-0.104-0.261-0.159l-0.505-0.298c-0.092-0.054-0.186-0.104-0.28-0.156l-0.133-0.074
	c-0.101-0.054-0.204-0.107-0.299-0.158l-0.119-0.064c-0.129-0.067-0.261-0.133-0.368-0.186l-0.06-0.03
	c-0.302-0.149-0.608-0.293-0.934-0.439l-0.094-0.04c-0.117-0.054-0.244-0.107-0.392-0.17l-0.117-0.047
	c-0.123-0.053-0.233-0.097-0.364-0.15l-0.163-0.065c-0.109-0.043-0.211-0.083-0.339-0.132l-0.181-0.068
	c-0.105-0.037-0.208-0.075-0.341-0.122l-0.711-0.241c-0.116-0.037-0.223-0.073-0.357-0.114l-0.755-0.223
	c-0.109-0.03-0.214-0.06-0.335-0.092l-0.233-0.064c-0.114-0.027-0.222-0.056-0.335-0.084l-0.251-0.06
	c-0.112-0.026-0.223-0.051-0.338-0.077l-0.584-0.123c-0.011-0.002-0.023-0.004-0.035-0.007l-0.844-0.157
	c-0.098-0.017-0.201-0.032-0.305-0.049l-0.316-0.049c-0.117-0.018-0.237-0.034-0.367-0.051l-0.255-0.032
	c-0.117-0.016-0.233-0.028-0.344-0.039l-0.291-0.034c-0.147-0.015-0.286-0.026-0.424-0.038l-0.232-0.02
	c-0.172-0.015-0.347-0.025-0.505-0.035l-0.163-0.01c-0.214-0.013-0.439-0.022-0.676-0.029l-0.094-0.002
	c-0.181-0.004-0.372-0.009-0.587-0.01h-0.335c-0.109,0-0.216,0.001-0.344,0.003l-0.332,0.009c-0.037,0.001-0.076,0.002-0.114,0.004
	c0.247,13.329,1.417,26.433,3.464,39.245c8.044-1.955,14.044-5.088,15.12-5.671c1.554,0.844,13.736,7.219,27.477,7.26h0.135h0.006
	C300.956,315.207,313.517,305.676,320.954,286.878z"/>
<path style="fill:#25B75F;" d="M69.173,498.572v-12.051c0-48.809,39.568-88.384,88.382-88.384H134.21
	c-48.812,0-88.382,39.575-88.382,88.384v12.051c0,7.418,6.012,13.428,13.428,13.428h23.345
	C75.186,512,69.173,505.989,69.173,498.572z"/>
<path style="fill:#5AE090;" d="M377.79,398.137h-45.05h-1.792h-14.09h-11.999v3.993h-0.009c-0.129,8.533-9.012,16.019-22.373,20.339
	c24.45,36.898,57.392,67.672,96.049,89.532h74.22c7.416,0,13.428-6.01,13.428-13.428v-12.051
	C466.174,437.712,426.604,398.137,377.79,398.137z"/>
<path style="fill:#E0B063;" d="M246.712,376.116c-1.663-0.461-3.311-0.958-4.944-1.49c-3.263-1.066-6.463-2.27-9.586-3.606
	c-35.933-15.369-62.164-48.209-67.296-87.447c-0.605-4.627-0.918-9.344-0.918-14.129v-34.528v-17.306v-22.563v-14.015v-12.664
	v-1.275c0-2.867,0.312-5.692,0.918-8.463c0.19-0.873,0.42-1.739,0.667-2.602c0.07-0.243,0.149-0.487,0.223-0.73
	c0.195-0.63,0.404-1.259,0.63-1.883c0.094-0.262,0.188-0.525,0.286-0.786c0.271-0.711,0.562-1.417,0.872-2.117
	c0.059-0.137,0.112-0.274,0.175-0.41c0.365-0.806,0.761-1.604,1.175-2.398c0.152-0.285,0.311-0.568,0.468-0.854
	c0.288-0.52,0.582-1.038,0.888-1.553c0.197-0.329,0.394-0.655,0.599-0.981c0.308-0.49,0.63-0.977,0.957-1.463
	c0.206-0.305,0.404-0.615,0.619-0.92c0.491-0.697,1.005-1.388,1.534-2.073c0.3-0.386,0.614-0.766,0.924-1.149
	c0.284-0.35,0.571-0.699,0.864-1.046c0.355-0.415,0.716-0.828,1.083-1.238c0.257-0.29,0.527-0.575,0.791-0.863
	c1.447-1.555,2.992-3.074,4.638-4.55c0.179-0.161,0.354-0.322,0.536-0.481c0.552-0.487,1.113-0.969,1.69-1.446
	c0.162-0.135,0.328-0.269,0.491-0.405c0.599-0.49,1.204-0.979,1.827-1.46c0.055-0.044,0.11-0.085,0.163-0.128
	c0.269-0.208,0.555-0.407,0.828-0.613c4.197-2.924,8.717-3.761,12.778-3.643c-6.211-1.966-11.834-4.248-16.693-6.807
	c-5.088-1.183-12.003-1.42-18.209,3.03c-0.273,0.211-0.559,0.417-0.828,0.631c-0.055,0.044-0.11,0.086-0.163,0.131
	c-0.623,0.496-1.229,0.999-1.827,1.504c-0.163,0.14-0.33,0.278-0.491,0.416c-0.575,0.49-1.137,0.987-1.69,1.487
	c-0.181,0.163-0.356,0.33-0.536,0.495c-1.646,1.52-3.191,3.083-4.638,4.684c-0.264,0.295-0.534,0.589-0.791,0.887
	c-0.367,0.422-0.727,0.847-1.082,1.275c-0.295,0.357-0.582,0.716-0.865,1.076c-0.31,0.394-0.626,0.786-0.924,1.183
	c-0.529,0.706-1.043,1.417-1.534,2.134c-0.214,0.313-0.413,0.632-0.619,0.948c-0.328,0.499-0.649,1-0.957,1.505
	c-0.206,0.336-0.402,0.673-0.599,1.009c-0.305,0.53-0.601,1.063-0.887,1.599c-0.158,0.293-0.317,0.584-0.468,0.878
	c-0.415,0.817-0.811,1.638-1.176,2.467c-0.064,0.14-0.116,0.282-0.175,0.422c-0.31,0.722-0.601,1.448-0.872,2.179
	c-0.098,0.269-0.192,0.538-0.286,0.809c-0.225,0.642-0.435,1.289-0.63,1.939c-0.074,0.251-0.153,0.5-0.223,0.751
	c-0.247,0.887-0.477,1.779-0.667,2.677c-0.605,2.852-0.918,5.761-0.918,8.71v1.311v13.034v14.425v23.223v17.812v35.538
	c0,4.926,0.312,9.78,0.918,14.542c5.132,40.386,31.362,74.185,67.297,90.004c3.123,1.375,6.322,2.614,9.585,3.711
	c1.633,0.548,3.281,1.06,4.944,1.534c9.986,2.852,20.529,4.38,31.428,4.38c3.704,0,7.361-0.19,10.974-0.535
	C260.029,379.181,253.251,377.93,246.712,376.116z"/>
<g>
</g>
<g>
</g>
<g>
</g>
<g>
</g>
<g>
</g>
<g>
</g>
<g>
</g>
<g>
</g>
<g>
</g>
<g>
</g>
<g>
</g>
<g>
</g>
<g>
</g>
<g>
</g>
<g>
</g>
</svg>
