<?xml version="1.0" encoding="iso-8859-1"?>
<!-- Generator: Adobe Illustrator 19.0.0, SVG Export Plug-In . SVG Version: 6.00 Build 0)  -->
<svg version="1.1" id="Capa_1" xmlns="http://www.w3.org/2000/svg" xmlns:xlink="http://www.w3.org/1999/xlink" x="0px" y="0px"
	 viewBox="0 0 512.001 512.001" style="enable-background:new 0 0 512.001 512.001;" xml:space="preserve">
<path style="fill:#B6C5D8;" d="M256.001,196.64c-4.34,0-7.857-3.518-7.857-7.857V52.595c0-4.339,3.517-7.857,7.857-7.857
	s7.857,3.518,7.857,7.857v136.187C263.858,193.122,260.34,196.64,256.001,196.64z"/>
<path style="fill:#1F3B63;" d="M0,329.812v49.164c0,48.76,39.528,88.288,88.288,88.288l0,0c37.513,0,69.549-23.4,82.333-56.398
	c6.171-15.93,21.653-26.302,38.736-26.302h93.289c17.083,0,32.564,10.374,38.736,26.302c12.783,32.998,44.819,56.398,82.333,56.398
	l0,0c48.76,0,88.288-39.528,88.288-88.288v-49.164c0-86.377-70.023-156.399-156.399-156.399H156.399
	C70.023,173.412,0,243.434,0,329.812z"/>
<g>
	<path style="fill:#122944;" d="M26.714,378.976v-49.164c0-86.378,70.023-156.399,156.399-156.399h-26.714
		C70.023,173.412,0,243.434,0,329.812v49.164c0,48.76,39.528,88.288,88.288,88.288l0,0c4.534,0,8.987-0.349,13.337-1.009
		C59.212,459.807,26.714,423.188,26.714,378.976z"/>
	<path style="fill:#122944;" d="M368.094,410.864c-6.171-15.929-21.653-26.302-38.736-26.302h-26.714
		c17.083,0,32.564,10.374,38.736,26.302c12.783,32.998,44.82,56.398,82.333,56.398c4.548,0,9.014-0.346,13.377-1.009
		C405.452,461.458,379.332,439.875,368.094,410.864z"/>
</g>
<path style="fill:#B6C5D8;" d="M150.138,273.196h-9.704v-9.704c0-15.188-12.312-27.5-27.5-27.5l0,0c-15.188,0-27.5,12.312-27.5,27.5
	v9.704h-9.704c-15.188,0-27.5,12.312-27.5,27.5c0,15.188,12.312,27.5,27.5,27.5h9.704v9.704c0,15.188,12.312,27.5,27.5,27.5l0,0
	c15.188,0,27.5-12.312,27.5-27.5v-9.704h9.704c15.188,0,27.5-12.312,27.5-27.5C177.637,285.508,165.325,273.196,150.138,273.196z"/>
<circle style="fill:#F4E662;" cx="403.377" cy="263.411" r="19.549"/>
<circle style="fill:#ED3B72;" cx="403.377" cy="350.481" r="19.549"/>
<circle style="fill:#B6C5D8;" cx="446.917" cy="306.951" r="19.549"/>
<circle style="fill:#25C2CE;" cx="359.847" cy="306.951" r="19.549"/>
<path style="fill:#B6C5D8;" d="M276.028,323.936h-40.056c-7.743,0-14.021-6.277-14.021-14.021v-0.245
	c0-7.743,6.278-14.021,14.021-14.021h40.056c7.743,0,14.021,6.278,14.021,14.021v0.245
	C290.049,317.659,283.772,323.936,276.028,323.936z"/>
<g>
</g>
<g>
</g>
<g>
</g>
<g>
</g>
<g>
</g>
<g>
</g>
<g>
</g>
<g>
</g>
<g>
</g>
<g>
</g>
<g>
</g>
<g>
</g>
<g>
</g>
<g>
</g>
<g>
</g>
</svg>
